<?xml version="1.0" standalone="no"?>
<!DOCTYPE svg PUBLIC "-//W3C//DTD SVG 20010904//EN"
 "http://www.w3.org/TR/2001/REC-SVG-20010904/DTD/svg10.dtd">
<svg version="1.0" xmlns="http://www.w3.org/2000/svg"
 width="512.000000pt" height="512.000000pt" viewBox="0 0 512.000000 512.000000"
 preserveAspectRatio="xMidYMid meet">
<metadata>
Created by potrace 1.11, written by Peter Selinger 2001-2013
</metadata>
<g transform="translate(0.000000,512.000000) scale(0.100000,-0.100000)"
fill="#000000" stroke="none">
<path d="M2260 5105 c-921 -112 -1707 -705 -2064 -1558 -246 -586 -262 -1262
-45 -1863 17 -47 35 -82 39 -77 4 4 30 64 58 133 72 182 158 449 287 895 37
127 88 302 115 390 150 497 174 564 227 633 34 46 133 92 195 92 73 0 84 -16
92 -141 4 -57 14 -176 22 -264 7 -88 14 -212 15 -275 0 -63 4 -137 7 -165 l7
-50 94 165 c110 192 285 480 403 664 77 120 87 132 143 163 77 42 155 61 190
45 20 -9 25 -19 25 -45 0 -43 -35 -230 -95 -502 -91 -419 -104 -483 -140 -664
-19 -101 -52 -276 -71 -390 -75 -434 -54 -695 70 -877 36 -54 33 -80 -13 -124
-61 -58 -165 -86 -223 -59 -26 11 -85 100 -111 165 -76 193 -79 455 -12 876
31 193 108 587 148 756 9 34 14 62 12 62 -2 0 -38 -66 -81 -147 -141 -269
-192 -333 -304 -387 -83 -39 -182 -44 -226 -10 -65 48 -91 120 -101 277 -3 53
-9 97 -13 97 -3 0 -26 -69 -49 -152 -177 -627 -357 -1150 -419 -1222 -23 -26
-108 -64 -160 -72 l-42 -6 56 -107 c273 -517 733 -937 1277 -1165 625 -262
1349 -262 1974 0 620 260 1117 757 1377 1377 226 539 259 1165 90 1724 -34
112 -90 262 -102 275 -4 4 3 -84 15 -195 79 -700 25 -1134 -178 -1437 -66 -98
-212 -244 -310 -309 -400 -264 -841 -234 -1141 77 -72 74 -80 95 -52 138 36
54 162 102 223 84 14 -4 67 -47 116 -96 226 -223 453 -246 699 -70 240 171
360 460 381 914 l6 127 -23 -30 c-12 -16 -63 -71 -113 -121 -67 -68 -108 -101
-163 -128 -134 -68 -273 -84 -397 -45 -116 35 -179 111 -216 260 -19 74 -21
102 -16 234 6 172 25 275 96 527 45 158 52 176 84 203 66 57 208 88 243 54 14
-14 10 -36 -40 -230 -76 -297 -89 -376 -90 -554 -1 -145 0 -152 27 -208 63
-127 190 -142 283 -33 110 129 236 516 251 776 3 52 12 107 19 121 21 41 106
79 177 79 l59 0 -42 78 c-110 203 -265 407 -440 582 -414 415 -936 667 -1519
735 -151 18 -444 18 -591 0z m1494 -1285 c42 -15 35 -59 -15 -105 -61 -55 -92
-63 -265 -75 -87 -6 -204 -18 -261 -26 -107 -16 -289 -57 -300 -67 -19 -20
-212 -752 -200 -763 3 -3 50 2 104 11 112 19 505 32 568 18 73 -16 56 -72 -42
-140 -54 -37 -57 -38 -134 -35 -107 3 -322 -13 -446 -34 l-102 -17 -11 -51
c-43 -198 -114 -574 -141 -746 l-32 -205 -38 -36 c-85 -82 -269 -98 -269 -24
0 38 74 466 125 722 25 126 45 234 45 240 0 8 -25 3 -70 -13 -86 -30 -133 -31
-161 -3 -23 23 -19 50 15 88 22 25 153 90 224 111 l41 13 26 111 c29 124 100
386 146 533 16 52 29 99 29 103 0 5 -20 8 -44 8 -86 -2 -126 60 -73 110 69 65
398 181 652 231 213 41 568 65 629 41z"/>
</g>
</svg>
