<svg xmlns="http://www.w3.org/2000/svg" version="1.1" xmlns:xlink="http://www.w3.org/1999/xlink" xmlns:svgjs="http://svgjs.com/svgjs" width="100%" height="100%" viewBox="0 0 1000 600"><rect width="1000" height="600" x="0" y="0" fill="#ffffff"/><g><circle r="166.66666666666666" cx="400.2981516520182" cy="422.52031856719407" fill="#209cee" transform="matrix(0.5350308487431913,0,0,0.5350308487431913,0,73.93861441923693)"/><path d="M356.5798409802887 353.4725358537189Q357.66601037471696 351.7563882105222 362.119304891873 349.6274961974427Q366.5943227969176 347.5203275722518 369.7224906528711 347.5203275722518L369.7224906528711 347.5203275722518Q373.7847641880329 347.5203275722518 373.1547859392645 351.4305373921937L373.1547859392645 351.4305373921937Q371.4386382960678 361.5970829240426 368.85355513732844 373.26254222020253Q366.2684719785891 384.9062781284739 365.6384937298207 388.0344459844274L365.6384937298207 388.0344459844274Q360.3379870850106 412.429810583287 358.14392490826543 424.79041829188105L358.14392490826543 424.79041829188105L357.03603212594857 430.8946902885681Q355.31988448275183 439.9533430381001 354.29888525198925 447.317571532324Q353.2996094091152 454.66007663865923 353.2996094091152 461.6984543145546L353.2996094091152 461.6984543145546Q353.2996094091152 478.447186376639 360.3379870850106 487.20171169573115L360.3379870850106 487.20171169573115Q361.27209276421894 488.43994480537935 361.27209276421894 489.6999013029162L361.27209276421894 489.6999013029162Q361.27209276421894 492.67600544364973 357.2749893927228 495.08730149928056Q353.2996094091152 497.5203209428 349.3893995891733 497.5203209428L349.3893995891733 497.5203209428Q346.0874446301113 497.5203209428 344.84921152046303 495.80417329960324L344.84921152046303 495.80417329960324Q336.55087734703085 485.4855640525344 336.55087734703085 466.54276981370487L336.55087734703085 466.54276981370487Q336.55087734703085 459.0482009921496 337.4198128625735 452.00982331625426Q338.2670249902276 444.97144564035887 340.1569597365328 434.0228581445216L340.1569597365328 434.0228581445216Q342.6551493437179 418.05616804642557 348.4335705220764 393.0308251987976L348.4335705220764 393.0308251987976Q348.1294430916365 393.35667601712606 348.1294430916365 393.50873973234604L348.1294430916365 393.50873973234604Q347.19533741242816 395.0728236603228 344.06716955647465 401.32915937222975L344.06716955647465 401.32915937222975Q339.37491777254445 410.86572665531025 335.3126442373826 416.3400204032289Q331.2286473143322 421.8143141511475 324.9723116024252 423.8563126126727L324.9723116024252 423.8563126126727Q322.0179308495802 424.79041829188105 319.34595413928656 424.79041829188105L319.34595413928656 424.79041829188105Q314.0237241065879 424.79041829188105 311.52553449940285 420.64125120516496Q309.02734489221774 416.4920841184488 308.54943035866927 409.4537064425534L308.54943035866927 409.4537064425534L308.0932392130094 401.9591376209982Q306.6812190002526 406.3255385866 305.11713507227586 412.12568315284705L305.11713507227586 412.12568315284705L302.14103093154233 422.29222868469594Q296.6667371836237 441.2132995356369 292.5175700969076 453.6390774078967Q288.39012639808004 466.086578668045 282.9158326501614 477.9692718430906L282.9158326501614 477.9692718430906Q281.9600035830645 480.1633340198357 277.98462359945694 481.87948166303244Q273.98752022796083 483.59562930622917 270.40316122634744 483.59562930622917L270.40316122634744 483.59562930622917Q268.3611627648222 483.59562930622917 267.1012062672854 482.900480893795Q265.86297315763716 482.18360909347234 265.86297315763716 480.79331226860415L265.86297315763716 480.79331226860415Q265.86297315763716 480.0112703046158 266.31916430329704 479.05544123751883L266.31916430329704 479.05544123751883Q271.9672451543242 466.54276981370487 276.181582404706 453.6390774078967Q280.39591965508777 440.7353850020885 286.5001916517748 419.6202519744023L286.5001916517748 419.6202519744023L289.3242320772884 409.9316209761019Q295.5805677891954 388.6644242331958 299.0128630755888 378.0199641677985L299.0128630755888 378.0199641677985L299.9469687547971 374.739732596625Q301.5110526827739 369.5695662791463 302.9230728955307 366.28933470797284Q304.3350931082875 363.00910313679935 306.52915528503263 360.3588498143943L306.52915528503263 360.3588498143943Q307.7673883946809 358.79476588641757 311.13451351740866 357.2306819584408Q314.5016386401364 355.66659803046406 317.4777427808699 355.66659803046406L317.4777427808699 355.66659803046406Q322.0179308495802 355.66659803046406 322.16999456480016 359.7288715656259L322.16999456480016 359.7288715656259Q322.47412199524007 366.7672492415213 323.7340784927769 380.84400459331204L323.7340784927769 380.84400459331204L324.3640567415453 388.18650969964733Q324.5161204567653 389.59852991240416 324.5161204567653 393.81286716278595L324.5161204567653 393.81286716278595Q324.5161204567653 401.9591376209982 324.9723116024252 405.8693474409401L324.9723116024252 405.8693474409401L329.0563085254756 398.8309697650447Q330.92451988389223 395.3769510907627 337.0287918805793 384.9062781284739L337.0287918805793 384.9062781284739Q345.15333895090293 371.3074373102316 356.5798409802887 353.4725358537189L356.5798409802887 353.4725358537189ZM463.87165376191604 351.4305373921937Q468.7159692610663 351.4305373921937 468.7159692610663 354.1025141024873L468.7159692610663 354.1025141024873Q468.7159692610663 356.44863999445244 465.1316102594529 359.0988933168575Q461.5255278699509 361.74914663926256 458.2452962987775 361.9229337423711L458.2452962987775 361.9229337423711Q437.43429070153127 362.37912488803096 419.92524006334713 367.2234403871812L419.92524006334713 367.2234403871812Q413.6689043514401 387.40446773565895 408.4987380339614 410.2357484065418L408.4987380339614 410.2357484065418Q421.7934514217638 407.58549508413677 434.63197366390625 407.58549508413677L434.63197366390625 407.58549508413677Q440.1062674118249 407.58549508413677 445.73262487496345 408.06340961768524L445.73262487496345 408.06340961768524Q449.012856446137 408.21547333290516 449.012856446137 410.2357484065418L449.012856446137 410.2357484065418Q449.012856446137 412.58187429850693 445.10264662619505 415.64487199079474Q441.1924368062532 418.686146295194 438.3683963807396 418.53408257997404L438.3683963807396 418.53408257997404Q436.0222704887745 418.38201886475406 431.3300187048443 418.38201886475406L431.3300187048443 418.38201886475406Q419.59938924501864 418.38201886475406 406.0005484267763 421.1843359023791L406.0005484267763 421.1843359023791Q399.74421271486926 448.88165546030075 395.8340028949274 475.7752096663454L395.8340028949274 475.7752096663454Q395.35608836137897 478.751313807079 391.1417511109971 481.0105461474898Q386.9274138606154 483.2915018757892 382.84341693756494 483.2915018757892L382.84341693756494 483.2915018757892Q380.4972910455998 483.2915018757892 379.1721643843973 482.3573961965809Q377.8470377231948 481.40156712948396 378.1511651536347 479.53335577106736L378.1511651536347 479.53335577106736Q383.0172040406735 448.88165546030075 388.01358325504367 426.05037478941784L388.01358325504367 426.05037478941784L382.691353222345 427.91858614783456Q379.88903618472 428.85269182704286 377.99910143841475 428.85269182704286L377.99910143841475 428.85269182704286Q376.13089007999804 428.85269182704286 375.0229972976812 428.0706498630545Q373.9368279032529 427.2886078990661 373.9368279032529 425.87658768630934L373.9368279032529 425.87658768630934Q373.9368279032529 424.3125037583326 375.50091183122964 422.5963561151359Q377.0649957592064 420.88020847193917 380.0410998999399 419.4681882591824L380.0410998999399 419.4681882591824Q385.51539364785856 416.9699986519973 390.5117728622288 415.25385100880055L390.5117728622288 415.25385100880055Q395.8340028949274 392.0967195195892 402.0903386068344 373.17564866864825L402.0903386068344 373.17564866864825Q399.89627643008924 373.80562691741665 398.9621707508809 373.80562691741665L398.9621707508809 373.80562691741665Q396.7681085741358 373.80562691741665 395.204024646159 372.6977341350998Q393.63994071818223 371.6115647406715 393.63994071818223 370.04748081269474L393.63994071818223 370.04748081269474Q393.63994071818223 367.2234403871812 398.0280650716726 365.20316531354456L398.0280650716726 365.20316531354456Q427.59359598801086 350.9743462465338 463.87165376191604 351.4305373921937L463.87165376191604 351.4305373921937ZM531.1272626649163 364.4211233495562L531.6051771984648 368.0054823511695Q533.1692611264416 381.9301739877403 533.95130309043 390.29367832483825Q534.7333450544182 398.6789060498247 534.7333450544182 407.73755879935675L534.7333450544182 407.73755879935675Q534.7333450544182 444.18940367637043 518.4625275258824 462.8063470968715L518.4625275258824 462.8063470968715Q509.3821513884618 473.12495634394037 497.73841548019044 478.9033775222989Q486.07295618403055 484.70352208854604 474.1902630089849 484.70352208854604L474.1902630089849 484.70352208854604Q464.175781192356 484.70352208854604 455.03023489126974 480.31539773505574Q445.88468859018343 475.9272733815653 438.3683963807396 467.17274806247326L438.3683963807396 467.17274806247326Q437.43429070153127 465.934514952825 437.43429070153127 464.82662217050813L437.43429070153127 464.82662217050813Q437.43429070153127 462.0243051328831 441.4313940730274 459.59128568936376Q445.40677405663496 457.15826624584435 449.31698387657684 457.15826624584435L449.31698387657684 457.15826624584435Q452.14102430209044 457.15826624584435 453.5530445148472 458.7223501738211L453.5530445148472 458.7223501738211Q465.73986512033275 473.4290837743803 478.88251479291523 473.4290837743803L478.88251479291523 473.4290837743803Q484.9867867896022 473.4290837743803 490.7652079679608 470.30091591842677L490.7652079679608 470.30091591842677Q497.34739449819625 467.02068434725334 502.5827309793407 461.5463905993347Q507.81806746048505 456.07209685141606 510.79417160121864 449.33784660596064L510.79417160121864 449.33784660596064Q517.8325492771139 433.39287989575314 517.8325492771139 408.99751529689354L517.8325492771139 408.99751529689354Q512.0541280987554 417.90410433120564 504.14681490731743 423.0742706486843Q496.2395017158794 428.22271357827447 486.7029344327989 428.22271357827447L486.7029344327989 428.22271357827447Q475.45021950652176 428.22271357827447 470.6059040073716 421.1843359023791Q465.73986512033275 414.1459582264837 465.73986512033275 402.5891158697666L465.73986512033275 402.5891158697666Q465.73986512033275 392.8787614835776 468.0208208486322 383.1032369337229Q470.28005318904303 373.32771238386823 474.03819929376493 360.9671046752742L474.03819929376493 360.9671046752742Q474.8202412577533 358.4689150680891 479.1214720596894 356.44863999445244Q483.42270286162545 354.40664153292727 487.02878525112743 354.40664153292727L487.02878525112743 354.40664153292727Q489.049060324764 354.40664153292727 490.07005955552665 355.18868349691564Q491.0910587862893 355.970725460904 490.61314425274077 357.3827456736608L490.61314425274077 357.3827456736608L489.67903857353247 361.1408917783827Q487.96289093033573 367.5492912055097 486.246743287139 374.3487116146308Q484.50887225605373 381.148132023752 483.57476657684543 387.10034030521905L483.57476657684543 387.10034030521905Q482.3365334671971 395.8548656243112 482.3365334671971 400.39505369302145L482.3365334671971 400.39505369302145Q482.3365334671971 412.429810583287 488.4190820759956 415.71004215446044L488.4190820759956 415.71004215446044Q490.46108053752084 416.8179349367773 492.3292918959375 416.8179349367773L492.3292918959375 416.8179349367773Q498.759414710953 416.8179349367773 503.8426874768775 406.5644958533742Q508.9259602428019 396.3327801578596 511.66310711676124 383.49425791571707Q514.4002539907206 370.67745906146314 514.0744031723921 365.20316531354456L514.0744031723921 365.20316531354456Q513.922339457172 362.227061172811 517.5284218466741 360.0329989960658Q521.1127808482875 357.8389368193207 525.0229906682293 357.8389368193207L525.0229906682293 357.8389368193207Q530.193156985708 357.8389368193207 530.6493481313679 361.9229337423711L530.6493481313679 361.9229337423711L530.6493481313679 363.00910313679935L531.1272626649163 364.4211233495562Z " fill="#ffffff" transform="matrix(0.5350308487431913,0,0,0.5350308487431913,0,73.93861441923693)"/><path d="M741.0150369031402 353.4725358537189Q742.1012062975685 351.7563882105222 746.5545008147245 349.6274961974427Q751.0295187197692 347.5203275722518 754.1576865757227 347.5203275722518L754.1576865757227 347.5203275722518Q758.2199601108845 347.5203275722518 757.589981862116 351.4305373921937L757.589981862116 351.4305373921937Q755.8738342189193 361.5970829240426 753.28875106018 373.26254222020253Q750.7036679014407 384.9062781284739 750.0736896526722 388.0344459844274L750.0736896526722 388.0344459844274Q744.7731830078621 412.429810583287 742.5791208311169 424.79041829188105L742.5791208311169 424.79041829188105L741.4712280488002 430.8946902885681Q739.7550804056034 439.9533430381001 738.7340811748408 447.317571532324Q737.7348053319668 454.66007663865923 737.7348053319668 461.6984543145546L737.7348053319668 461.6984543145546Q737.7348053319668 478.447186376639 744.7731830078621 487.20171169573115L744.7731830078621 487.20171169573115Q745.7072886870704 488.43994480537935 745.7072886870704 489.6999013029162L745.7072886870704 489.6999013029162Q745.7072886870704 492.67600544364973 741.7101853155743 495.08730149928056Q737.7348053319668 497.5203209428 733.8245955120249 497.5203209428L733.8245955120249 497.5203209428Q730.5226405529629 497.5203209428 729.2844074433146 495.80417329960324L729.2844074433146 495.80417329960324Q720.9860732698824 485.4855640525344 720.9860732698824 466.54276981370487L720.9860732698824 466.54276981370487Q720.9860732698824 459.0482009921496 721.8550087854251 452.00982331625426Q722.7022209130791 444.97144564035887 724.5921556593844 434.0228581445216L724.5921556593844 434.0228581445216Q727.0903452665694 418.05616804642557 732.868766444928 393.0308251987976L732.868766444928 393.0308251987976Q732.5646390144881 393.35667601712606 732.5646390144881 393.50873973234604L732.5646390144881 393.50873973234604Q731.6305333352798 395.0728236603228 728.5023654793263 401.32915937222975L728.5023654793263 401.32915937222975Q723.810113695396 410.86572665531025 719.7478401602341 416.3400204032289Q715.6638432371838 421.8143141511475 709.4075075252767 423.8563126126727L709.4075075252767 423.8563126126727Q706.4531267724317 424.79041829188105 703.7811500621381 424.79041829188105L703.7811500621381 424.79041829188105Q698.4589200294395 424.79041829188105 695.9607304222543 420.64125120516496Q693.4625408150692 416.4920841184488 692.9846262815208 409.4537064425534L692.9846262815208 409.4537064425534L692.528435135861 401.9591376209982Q691.1164149231041 406.3255385866 689.5523309951275 412.12568315284705L689.5523309951275 412.12568315284705L686.5762268543938 422.29222868469594Q681.1019331064753 441.2132995356369 676.9527660197591 453.6390774078967Q672.8253223209316 466.086578668045 667.351028573013 477.9692718430906L667.351028573013 477.9692718430906Q666.395199505916 480.1633340198357 662.4198195223084 481.87948166303244Q658.4227161508123 483.59562930622917 654.8383571491989 483.59562930622917L654.8383571491989 483.59562930622917Q652.7963586876738 483.59562930622917 651.5364021901369 482.900480893795Q650.2981690804886 482.18360909347234 650.2981690804886 480.79331226860415L650.2981690804886 480.79331226860415Q650.2981690804886 480.0112703046158 650.7543602261485 479.05544123751883L650.7543602261485 479.05544123751883Q656.4024410771757 466.54276981370487 660.6167783275575 453.6390774078967Q664.8311155779393 440.7353850020885 670.9353875746264 419.6202519744023L670.9353875746264 419.6202519744023L673.7594280001399 409.9316209761019Q680.0157637120469 388.6644242331958 683.4480589984403 378.0199641677985L683.4480589984403 378.0199641677985L684.3821646776487 374.739732596625Q685.9462486056254 369.5695662791463 687.3582688183822 366.28933470797284Q688.770289031139 363.00910313679935 690.9643512078842 360.3588498143943L690.9643512078842 360.3588498143943Q692.2025843175325 358.79476588641757 695.5697094402601 357.2306819584408Q698.9368345629879 355.66659803046406 701.9129387037215 355.66659803046406L701.9129387037215 355.66659803046406Q706.4531267724317 355.66659803046406 706.6051904876517 359.7288715656259L706.6051904876517 359.7288715656259Q706.9093179180916 366.7672492415213 708.1692744156285 380.84400459331204L708.1692744156285 380.84400459331204L708.7992526643968 388.18650969964733Q708.9513163796169 389.59852991240416 708.9513163796169 393.81286716278595L708.9513163796169 393.81286716278595Q708.9513163796169 401.9591376209982 709.4075075252767 405.8693474409401L709.4075075252767 405.8693474409401L713.4915044483271 398.8309697650447Q715.3597158067438 395.3769510907627 721.4639878034309 384.9062781284739L721.4639878034309 384.9062781284739Q729.5885348737545 371.3074373102316 741.0150369031402 353.4725358537189L741.0150369031402 353.4725358537189ZM816.8731074100126 426.2024385046378Q816.8731074100126 409.627493545662 797.4741220255232 400.06920287469296L797.4741220255232 400.06920287469296Q792.629806526373 404.15319979774335 787.7854910272227 410.86572665531025L787.7854910272227 410.86572665531025Q781.8332827457557 419.4681882591824 777.9230729258138 430.1126483245797L777.9230729258138 430.1126483245797Q776.3589889978371 434.3269855749615 774.9469687850803 441.6043205176311Q773.5349485723235 448.88165546030075 773.5349485723235 455.1379911722077L773.5349485723235 455.1379911722077Q773.5349485723235 461.5463905993347 775.3379897670745 465.3697068677223Q777.1410309618254 469.2147465239985 781.2033044969874 469.2147465239985L781.2033044969874 469.2147465239985Q784.4835360681608 469.2147465239985 788.8716604216511 466.54276981370487L788.8716604216511 466.54276981370487Q800.9064173119166 459.5043921378095 808.9006240549089 449.0337191755207Q816.8731074100126 438.56304621323187 816.8731074100126 426.2024385046378L816.8731074100126 426.2024385046378ZM821.2395083756144 397.89686408583634Q826.8875892266416 403.1973707306464 829.9288635310409 409.9316209761019Q832.97013783544 416.6658712215574 832.97013783544 424.1604400431126L832.97013783544 424.1604400431126Q832.97013783544 434.9569638237299 826.713802123533 446.05761503478715L826.713802123533 446.05761503478715Q822.4994648731513 453.57390724423095 814.3749178028276 461.8505180297746Q806.2286473446153 470.14885220320684 796.3010590795407 475.86210321789963Q786.373470814466 481.57535423259253 777.2930946770455 481.57535423259253L777.2930946770455 481.57535423259253Q771.6667372139068 481.57535423259253 766.6703579995367 479.05544123751883L766.6703579995367 479.05544123751883Q756.0258979341393 473.27702005916035 756.0258979341393 458.2661590281612L756.0258979341393 458.2661590281612Q756.0258979341393 447.4696352475439 760.8702134332896 434.5659428417357Q765.7145289324397 421.66225043592755 771.1888226803584 412.7556614016155L771.1888226803584 412.7556614016155Q784.4835360681608 391.6405283739293 799.1902696687199 386.1662346260107L799.1902696687199 386.1662346260107Q803.2525432038817 384.602150698034 807.944794987812 384.602150698034L807.944794987812 384.602150698034Q813.4190887357306 384.602150698034 817.1772348404526 387.33929757199326Q820.9353809451745 390.0764444459526 821.5653591939429 395.8548656243112L821.5653591939429 395.8548656243112L821.5653591939429 396.48484387307957Q821.5653591939429 396.94103501873946 821.2395083756144 397.89686408583634L821.2395083756144 397.89686408583634ZM890.8412431705798 385.6883200924623Q891.9491359528967 384.1242361644855 895.3162610756244 382.95117321850296Q898.6616628104636 381.7781102725204 901.6377669511971 381.7781102725204L901.6377669511971 381.7781102725204Q903.8318291279422 381.7781102725204 905.1569557891448 382.4080885212888Q906.4820824503473 383.03806677005724 906.4820824503473 384.42836359492543L906.4820824503473 384.42836359492543Q906.4820824503473 385.5362563772423 905.700040486359 386.77448948689056L905.700040486359 386.77448948689056Q892.883241632105 408.21547333290516 884.1938864766787 429.24371280903705Q875.5262547091407 450.2936756730575 870.8340029252106 472.7991055256119L870.8340029252106 472.7991055256119Q870.2040246764421 475.7752096663454 866.3807084080545 478.20822910986476Q862.5356687517783 480.6195251654956 858.7775226470565 480.6195251654956L858.7775226470565 480.6195251654956Q854.5631853966746 480.6195251654956 853.4770160022463 477.33929359432216L853.4770160022463 477.33929359432216Q847.5248077207792 459.83024295613797 845.0917882772599 441.6043205176311Q842.680492221629 423.3783980791242 840.6384937601038 394.44284541155434L840.6384937601038 394.44284541155434L840.4864300448838 391.1626138403809Q840.3343663296639 387.73031855398744 844.6355971316 385.0583418436939Q848.936827933536 382.4080885212888 853.1511651839178 382.4080885212888L853.1511651839178 382.4080885212888Q857.2134387190797 382.4080885212888 857.3872258221882 385.2104055589138L857.3872258221882 385.2104055589138Q857.6913532526281 388.9685516636357 857.6913532526281 391.1626138403809L857.6913532526281 391.1626138403809L857.6913532526281 391.6405283739293Q859.4075008958248 421.51018672070757 862.6877324669983 440.1271301412086L862.6877324669983 440.1271301412086Q873.4842562476156 409.1495790121135 890.8412431705798 385.6883200924623L890.8412431705798 385.6883200924623ZM928.0751300115819 359.0988933168575Q926.3589823683851 358.62097878330906 924.6428347251885 358.62097878330906L924.6428347251885 358.62097878330906Q921.1888160509066 358.62097878330906 918.5385627285015 360.3588498143943L918.5385627285015 360.3588498143943Q915.0845440542195 362.227061172811 914.6283529085596 364.09527253122764L914.6283529085596 364.09527253122764Q912.5863544470344 371.4595010254515 911.956376198266 373.80562691741665L911.956376198266 373.80562691741665L911.956376198266 374.26181806307653Q911.956376198266 375.0438600270649 912.5863544470344 375.7607318273876Q913.2163326958027 376.45588023982174 913.9983746597911 376.7817310581502L913.9983746597911 376.7817310581502Q915.258331157328 377.38998591903004 916.8224150853048 377.38998591903004L916.8224150853048 377.38998591903004Q919.3206046924898 377.38998591903004 922.8397935304374 375.91279554260757Q926.3589823683851 374.4356051661851 927.4451517628136 371.7636284558915L927.4451517628136 371.7636284558915Q928.3792574420218 369.1133751334864 930.1171284731072 362.37912488803096L930.1171284731072 362.37912488803096L930.1171284731072 362.074997457591Q930.1171284731072 361.2929554936027 929.4871502243386 360.42401997806Q928.8571719755703 359.57680785040594 928.0751300115819 359.0988933168575L928.0751300115819 359.0988933168575ZM927.1410243323736 388.0344459844274L921.9708580148949 421.8143141511475Q921.0367523356865 428.0706498630545 918.4516691769472 444.4283609431447Q915.8665860182078 460.7643486353463 914.1504383750112 474.0590620231487L914.1504383750112 474.0590620231487Q913.6942472293513 477.0351661638822 910.001271288295 479.1423347890732Q906.3300187351274 481.24950341426404 902.5718726304054 481.24950341426404L902.5718726304054 481.24950341426404Q900.0736830232204 481.24950341426404 898.7485563620178 480.2285041835014Q897.4234297008153 479.2292283406274 897.7275571312553 477.18722987910223L897.7275571312553 477.18722987910223Q900.3995338415489 461.5463905993347 903.440808145948 441.45225680241117Q906.4820824503473 421.35812300548764 907.7420389478841 412.7556614016155L907.7420389478841 412.7556614016155L911.0222705190577 391.31467755560084Q911.5001850526061 388.5123605179758 915.3235013209937 386.47036205645065Q919.1685409772699 384.42836359492543 922.7528999788833 384.42836359492543L922.7528999788833 384.42836359492543Q924.9469621556284 384.42836359492543 926.2069186531653 385.3841926620224Q927.4451517628136 386.3182983412307 927.1410243323736 388.0344459844274L927.1410243323736 388.0344459844274ZM975.6276260996528 396.63690758829955Q967.6551427445492 402.7411795849865 962.6370401422904 416.3400204032289L962.6370401422904 416.3400204032289Q977.973751991618 410.5615992248703 990.3343597002121 406.6513894049284L990.3343597002121 406.6513894049284Q985.1641933827334 399.4609480138131 979.8419633500346 396.94103501873946L979.8419633500346 396.94103501873946Q978.7557939556064 396.48484387307957 977.7347947248437 396.3327801578596Q976.7137954940811 396.1589930547511 976.5617317788613 396.1589930547511L976.5617317788613 396.1589930547511Q976.7137954940811 396.3327801578596 976.3227745120869 396.48484387307957Q975.9317535300928 396.63690758829955 975.6276260996528 396.63690758829955L975.6276260996528 396.63690758829955ZM976.2576043484212 385.5362563772423Q978.7557939556064 384.9062781284739 981.5581109932314 384.9062781284739L981.5581109932314 384.9062781284739Q996.590695412119 384.9062781284739 1008.7775160176045 405.0873054769517L1008.7775160176045 405.0873054769517Q1009.255430551153 405.7172837257201 1009.255430551153 406.6513894049284L1009.255430551153 406.6513894049284Q1009.255430551153 408.36753704812514 1007.0613683744077 410.2357484065418L1007.0613683744077 410.2357484065418Q1005.3452207312112 412.12568315284705 1002.6732440209175 413.2118525472754L1002.6732440209175 413.2118525472754Q987.03240474115 420.0981665079508 959.2047448558969 429.63473379103124L959.2047448558969 429.63473379103124Q957.6406609279202 437.607217146135 957.6406609279202 446.05761503478715L957.6406609279202 446.05761503478715Q957.6406609279202 449.96782485472903 957.7927246431402 451.6839724979257L957.7927246431402 451.6839724979257Q958.0968520735801 458.7223501738211 960.6167650686538 463.89251649129983L960.6167650686538 463.89251649129983Q961.3988070326421 465.6086641344965 962.8759974090647 467.17274806247326Q964.3531877854871 468.73683199045 965.1352297494755 469.2147465239985L965.1352297494755 469.2147465239985Q965.613144283024 469.5188739544384 966.6993136774522 469.5188739544384L966.6993136774522 469.5188739544384Q967.8072064597691 469.5188739544384 969.2843968361916 468.88889570567Q970.7833106005027 468.2806408447901 972.6515219589193 467.17274806247326L972.6515219589193 467.17274806247326Q977.1917100276296 464.5224947400682 981.1019198475715 461.06847606578623Q985.0121296675134 457.6361807793928 990.486423415432 452.1618870314742L990.486423415432 452.1618870314742Q992.6804855921771 449.96782485472903 997.8289285217672 449.96782485472903L997.8289285217672 449.96782485472903Q1000.6529689472809 449.96782485472903 1002.6080738572518 450.8367603702717Q1004.5631787672228 451.6839724979257 1004.5631787672228 453.24805642590246L1004.5631787672228 453.24805642590246Q1004.5631787672228 454.66007663865923 1002.999094839246 456.37622428185597L1002.999094839246 456.37622428185597Q993.288740453057 466.86862063203336 983.1221949212081 474.21112573836865Q972.9556493893592 481.57535423259253 962.7891038575103 481.57535423259253L962.7891038575103 481.57535423259253Q957.9447883583601 481.57535423259253 953.7304511079784 479.53335577106736L953.7304511079784 479.53335577106736Q946.6920734320829 476.2531241998938 943.5639055761294 469.0626828087785Q940.4357377201759 461.8505180297746 940.4357377201759 452.1618870314742L940.4357377201759 452.1618870314742Q940.4357377201759 444.97144564035887 942.3039490785926 435.26109125416986L942.3039490785926 435.26109125416986L941.0657159689443 435.58694207249835L939.8057594714076 436.04313321815823Q937.4596335794424 436.8251751821466 936.0476133666857 436.8251751821466L936.0476133666857 436.8251751821466Q933.8535511899405 436.8251751821466 932.6153180802922 435.73900578771827Q931.3553615827554 434.65283639329 931.3553615827554 432.9149653622047L931.3553615827554 432.9149653622047Q931.3553615827554 430.8946902885681 933.0063390622863 428.93958537859714Q934.6355931539288 426.9844804686262 937.937548112991 425.72452397108935L937.937548112991 425.72452397108935L945.584180649766 422.74841983035583Q946.9962008625229 418.38201886475406 949.8202412880364 411.34364118885867L949.8202412880364 411.34364118885867Q954.1866422536382 401.6332868026697 960.7688287838737 394.5949091267743Q967.3292919262207 387.55653145087894 976.2576043484212 385.5362563772423L976.2576043484212 385.5362563772423ZM1034.736964544441 406.8034531201484Q1034.736964544441 412.7556614016155 1037.7999622367288 417.2741260824372Q1040.841236541128 421.8143141511475 1045.2293608946184 424.942482007101Q1049.5957618602201 428.0706498630545 1057.1120540696638 432.30671050132486L1057.1120540696638 432.30671050132486Q1067.2785996015127 438.0851316796834 1072.6659997978772 442.77738346361366Q1078.07512338213 447.4696352475439 1079.7912710253268 454.5080129234393L1079.7912710253268 454.5080129234393Q1080.421249274095 457.6361807793928 1080.421249274095 459.0482009921496L1080.421249274095 459.0482009921496Q1080.421249274095 469.99678848798686 1068.8426835294895 474.7542104355828Q1057.2641177848839 479.53335577106736 1042.5573841843247 479.53335577106736L1042.5573841843247 479.53335577106736Q1036.778963005966 479.53335577106736 1032.3908386524758 478.751313807079L1032.3908386524758 478.751313807079Q1027.2423957228857 477.8172081278706 1021.6812084234127 475.0800612539113Q1016.1417445118284 472.342914379952 1012.4487685707722 468.3458110084558Q1008.7775160176045 464.37043102484824 1008.7775160176045 460.13437038657787L1008.7775160176045 460.13437038657787Q1008.7775160176045 453.57390724423095 1018.9440615494534 448.0996134963124L1018.9440615494534 448.0996134963124Q1021.7681019749671 446.68759328355554 1024.418355297372 446.68759328355554L1024.418355297372 446.68759328355554Q1026.9165449045572 446.68759328355554 1028.567522384088 447.7737626779839Q1030.2184998636192 448.88165546030075 1030.2184998636192 450.4457393882775L1030.2184998636192 450.4457393882775Q1030.2184998636192 453.24805642590246 1025.678311794909 455.9200331361961L1025.678311794909 455.9200331361961Q1024.7442061157005 456.37622428185597 1024.7442061157005 457.33205334895285L1024.7442061157005 457.33205334895285Q1024.7442061157005 459.20026470736957 1027.6985868685456 461.8505180297746Q1030.674691009279 464.5224947400682 1032.3908386524758 465.4566004192766L1032.3908386524758 465.4566004192766Q1037.083090436406 468.1068537416816 1047.4234230713635 468.73683199045L1047.4234230713635 468.73683199045Q1048.6616561810117 468.88889570567 1051.7898240369652 468.88889570567L1051.7898240369652 468.88889570567Q1057.416181500104 468.88889570567 1060.870200174386 467.02068434725334Q1064.3024954607793 465.1524729888366 1063.8463043151194 460.13437038657787L1063.8463043151194 460.13437038657787Q1063.2163260663508 453.421843529011 1050.2257401089885 444.97144564035887L1050.2257401089885 444.97144564035887L1044.29525521541 441.2132995356369Q1036.1489847571977 436.21692032126674 1030.9136482760532 432.37188066499056Q1025.678311794909 428.54856439660296 1021.920165690187 423.13944081235Q1018.162019585465 417.75204061598566 1018.162019585465 411.0177903705302L1018.162019585465 411.0177903705302Q1018.162019585465 406.8034531201484 1019.7261035134418 402.5891158697666L1019.7261035134418 402.5891158697666Q1023.1801221877238 392.4225703379177 1032.5646257555843 386.86138303844484Q1041.9491293234448 381.3001957389719 1052.7239297161736 381.3001957389719L1052.7239297161736 381.3001957389719Q1063.8463043151194 381.3001957389719 1071.427766688229 386.94827658999907Q1079.0092290613384 392.5746340531377 1079.0092290613384 402.8932433002065L1079.0092290613384 402.8932433002065Q1079.0092290613384 406.17347487138 1078.07512338213 409.9316209761019L1078.07512338213 409.9316209761019Q1077.4451451333616 412.7556614016155 1073.3828715982 414.77593647525214Q1069.320598063038 416.8179349367773 1065.714515673536 416.8179349367773L1065.714515673536 416.8179349367773Q1063.5204534967909 416.8179349367773 1062.3473905508083 415.883829257569Q1061.1743276048257 414.92800019047206 1061.804305853594 413.2118525472754L1061.804305853594 413.2118525472754Q1062.7384115328025 409.9316209761019 1062.7384115328025 406.6513894049284L1062.7384115328025 406.6513894049284Q1062.7384115328025 401.48122308744973 1060.0881582103973 397.89686408583634Q1057.416181500104 394.2907816963344 1052.2677385705138 392.8787614835776L1052.2677385705138 392.8787614835776Q1049.443698145 392.2487832348092 1048.0316779322434 392.2487832348092L1048.0316779322434 392.2487832348092Q1042.4053204691047 392.2487832348092 1038.5820042007172 396.24588660630536Q1034.736964544441 400.24298997780147 1034.736964544441 406.8034531201484L1034.736964544441 406.8034531201484ZM1219.624718864026 351.4305373921937Q1224.4690343631762 351.4305373921937 1224.4690343631762 354.1025141024873L1224.4690343631762 354.1025141024873Q1224.4690343631762 356.44863999445244 1220.8629519736742 359.0988933168575Q1217.2785929720608 361.74914663926256 1213.9983614008875 361.9229337423711L1213.9983614008875 361.9229337423711Q1193.1873558036411 362.37912488803096 1175.678305165457 367.2234403871812L1175.678305165457 367.2234403871812Q1169.42196945355 387.40446773565895 1164.2518031360714 410.2357484065418L1164.2518031360714 410.2357484065418Q1177.5465165238738 407.58549508413677 1190.3633153781275 407.58549508413677L1190.3633153781275 407.58549508413677Q1195.8376091260461 407.58549508413677 1201.4856899770734 408.06340961768524L1201.4856899770734 408.06340961768524Q1204.765921548247 408.21547333290516 1204.765921548247 410.2357484065418L1204.765921548247 410.2357484065418Q1204.765921548247 412.58187429850693 1200.8557117283049 415.64487199079474Q1196.945501908363 418.686146295194 1194.1214614828496 418.53408257997404L1194.1214614828496 418.53408257997404Q1191.7753355908844 418.38201886475406 1187.0830838069542 418.38201886475406L1187.0830838069542 418.38201886475406Q1175.3524543471285 418.38201886475406 1161.7536135288863 421.1843359023791L1161.7536135288863 421.1843359023791Q1155.4972778169792 448.88165546030075 1151.5870679970374 475.7752096663454L1151.5870679970374 475.7752096663454Q1151.1091534634888 478.751313807079 1146.894816213107 481.0105461474898Q1142.6587555748367 483.2915018757892 1138.5964820396748 483.2915018757892L1138.5964820396748 483.2915018757892Q1136.2503561477097 483.2915018757892 1134.9252294865073 482.3573961965809Q1133.6001028253047 481.40156712948396 1133.9042302557446 479.53335577106736L1133.9042302557446 479.53335577106736Q1138.7485457548948 448.88165546030075 1143.7666483571536 426.05037478941784L1143.7666483571536 426.05037478941784L1138.444418324455 427.91858614783456Q1135.6203778989413 428.85269182704286 1133.7521665405247 428.85269182704286L1133.7521665405247 428.85269182704286Q1131.883955182108 428.85269182704286 1130.776062399791 428.0706498630545Q1129.6898930053628 427.2886078990661 1129.6898930053628 425.87658768630934L1129.6898930053628 425.87658768630934Q1129.6898930053628 424.3125037583326 1131.2539769333396 422.5963561151359Q1132.8180608613163 420.88020847193917 1135.7941650020498 419.4681882591824L1135.7941650020498 419.4681882591824Q1141.2684587499684 416.9699986519973 1146.2648379643388 415.25385100880055L1146.2648379643388 415.25385100880055Q1151.5870679970374 392.0967195195892 1157.8434037089444 373.17564866864825L1157.8434037089444 373.17564866864825Q1155.6493415321993 373.80562691741665 1154.7152358529909 373.80562691741665L1154.7152358529909 373.80562691741665Q1152.5211736762458 373.80562691741665 1150.957089748269 372.6977341350998Q1149.3930058202923 371.6115647406715 1149.3930058202923 370.04748081269474L1149.3930058202923 370.04748081269474Q1149.3930058202923 367.2234403871812 1153.7811301737825 365.20316531354456L1153.7811301737825 365.20316531354456Q1183.3249377022323 350.9743462465338 1219.624718864026 351.4305373921937L1219.624718864026 351.4305373921937ZM1263.7231962778148 426.2024385046378Q1263.7231962778148 409.627493545662 1244.3242108933255 400.06920287469296L1244.3242108933255 400.06920287469296Q1239.4798953941752 404.15319979774335 1234.6355798950253 410.86572665531025L1234.6355798950253 410.86572665531025Q1228.683371613558 419.4681882591824 1224.773161793616 430.1126483245797L1224.773161793616 430.1126483245797Q1223.2090778656393 434.3269855749615 1221.8187810407712 441.6043205176311Q1220.4067608280143 448.88165546030075 1220.4067608280143 455.1379911722077L1220.4067608280143 455.1379911722077Q1220.4067608280143 461.5463905993347 1222.2098020227654 465.3697068677223Q1223.9911198296277 469.2147465239985 1228.0751167526782 469.2147465239985L1228.0751167526782 469.2147465239985Q1231.3553483238516 469.2147465239985 1235.7217492894533 466.54276981370487L1235.7217492894533 466.54276981370487Q1247.7782295676075 459.5043921378095 1255.750712922711 449.0337191755207Q1263.7231962778148 438.56304621323187 1263.7231962778148 426.2024385046378L1263.7231962778148 426.2024385046378ZM1268.1113206313053 397.89686408583634Q1273.737678094444 403.1973707306464 1276.778952398843 409.9316209761019Q1279.841950091131 416.6658712215574 1279.841950091131 424.1604400431126L1279.841950091131 424.1604400431126Q1279.841950091131 434.9569638237299 1273.5856143792241 446.05761503478715L1273.5856143792241 446.05761503478715Q1269.3495537409533 453.57390724423095 1261.22500667063 461.8505180297746Q1253.1004596003063 470.14885220320684 1243.151147947343 475.86210321789963Q1233.2235596822684 481.57535423259253 1224.1649069327364 481.57535423259253L1224.1649069327364 481.57535423259253Q1218.516826081709 481.57535423259253 1213.520446867339 479.05544123751883L1213.520446867339 479.05544123751883Q1202.8759868019415 473.27702005916035 1202.8759868019415 458.2661590281612L1202.8759868019415 458.2661590281612Q1202.8759868019415 447.4696352475439 1207.7420256889804 434.5659428417357Q1212.5863411881305 421.66225043592755 1218.0606349360492 412.7556614016155L1218.0606349360492 412.7556614016155Q1231.3553483238516 391.6405283739293 1246.062081924411 386.1662346260107L1246.062081924411 386.1662346260107Q1250.1243554595726 384.602150698034 1254.8166072435029 384.602150698034L1254.8166072435029 384.602150698034Q1260.2909009914217 384.602150698034 1264.0490470961433 387.33929757199326Q1267.785469812977 390.0764444459526 1268.4154480617453 395.8548656243112L1268.4154480617453 395.8548656243112L1268.4154480617453 396.48484387307957Q1268.4154480617453 396.94103501873946 1268.1113206313053 397.89686408583634L1268.1113206313053 397.89686408583634ZM1325.9824259664451 383.34219420049715Q1330.5226140351554 381.47398284208043 1334.2590367519888 381.47398284208043L1334.2590367519888 381.47398284208043Q1338.3430336750391 381.47398284208043 1340.8412232822243 383.58115146727135Q1343.3394128894092 385.6883200924623 1343.3394128894092 390.38057187639254L1343.3394128894092 390.38057187639254Q1343.3394128894092 394.9207599451028 1341.9273926766525 400.24298997780147Q1340.5153724638958 405.5434966226116 1338.0171828567106 412.7556614016155L1338.0171828567106 412.7556614016155L1335.8231206799655 419.3161245439624Q1334.8890150007571 422.29222868469594 1330.9788051808152 424.3125037583326Q1327.0685953608734 426.3545022198578 1323.48423635926 426.3545022198578L1323.48423635926 426.3545022198578Q1321.1381104672948 426.3545022198578 1319.9650475213123 425.3335029890952Q1318.7919845753297 424.3125037583326 1319.4002394362094 422.29222868469594L1319.4002394362094 422.29222868469594Q1322.2242798617233 413.5377033656039 1325.0483202872367 402.8932433002065L1325.0483202872367 402.8932433002065Q1325.6565751481164 398.0489278010563 1325.9824259664451 396.48484387307957L1325.9824259664451 396.48484387307957L1325.3524477176768 397.11482212184796Q1313.317690827411 407.4334313689168 1303.3032090107824 423.0742706486843L1303.3032090107824 423.0742706486843Q1298.763020942072 447.9475497810924 1297.6768515476435 472.9728926287204L1297.6768515476435 472.9728926287204Q1297.503064444535 475.9272733815653 1293.6797481761475 478.20822910986476Q1289.8564319077598 480.46746145027566 1285.7724349847094 480.46746145027566L1285.7724349847094 480.46746145027566Q1283.4263090927443 480.46746145027566 1281.8622251647676 479.3812920558473Q1280.2981412367908 478.27339927353046 1280.4719283398993 476.1010604846739L1280.4719283398993 476.1010604846739Q1281.7101614495475 453.57390724423095 1285.3162438390495 432.30671050132486L1285.3162438390495 432.30671050132486Q1283.7521599110728 431.19881771900805 1283.7521599110728 429.7867975062512L1283.7521599110728 429.7867975062512Q1283.7521599110728 428.85269182704286 1284.3821381598411 427.7665224326146L1284.3821381598411 427.7665224326146L1286.7282640518063 423.8563126126727Q1290.1605593381998 405.8693474409401 1295.15693855257 387.73031855398744L1295.15693855257 387.73031855398744Q1295.9389805165583 384.9062781284739 1300.0881476032744 382.799109503283Q1304.2373146899906 380.69194087809205 1307.9954607947125 380.69194087809205L1307.9954607947125 380.69194087809205Q1310.3415866866774 380.69194087809205 1311.5798197963256 381.6260465573004Q1312.8397762938628 382.56015223650877 1312.2097980450942 384.42836359492543L1312.2097980450942 384.42836359492543Q1309.7116084379093 393.2046123019061 1309.0816301891407 396.0069293395311L1309.0816301891407 396.0069293395311Q1318.4661337570012 386.6224257716706 1325.9824259664451 383.34219420049715L1325.9824259664451 383.34219420049715ZM1468.4661271275493 364.4211233495562L1468.944041661098 368.0054823511695Q1470.5081255890746 381.9301739877403 1471.2901675530632 390.29367832483825Q1472.0722095170515 398.6789060498247 1472.0722095170515 407.73755879935675L1472.0722095170515 407.73755879935675Q1472.0722095170515 444.18940367637043 1455.8013919885154 462.8063470968715L1455.8013919885154 462.8063470968715Q1446.7210158510948 473.12495634394037 1435.0772799428235 478.9033775222989Q1423.4118206466635 484.70352208854604 1411.529127471618 484.70352208854604L1411.529127471618 484.70352208854604Q1401.514645654989 484.70352208854604 1392.3690993539028 480.31539773505574Q1383.2235530528164 475.9272733815653 1375.7072608433725 467.17274806247326L1375.7072608433725 467.17274806247326Q1374.7731551641643 465.934514952825 1374.7731551641643 464.82662217050813L1374.7731551641643 464.82662217050813Q1374.7731551641643 462.0243051328831 1378.7702585356603 459.59128568936376Q1382.745638519268 457.15826624584435 1386.6558483392098 457.15826624584435L1386.6558483392098 457.15826624584435Q1389.4798887647235 457.15826624584435 1390.8919089774802 458.7223501738211L1390.8919089774802 458.7223501738211Q1403.0787295829657 473.4290837743803 1416.221379255548 473.4290837743803L1416.221379255548 473.4290837743803Q1422.325651252235 473.4290837743803 1428.1040724305938 470.30091591842677L1428.1040724305938 470.30091591842677Q1434.6862589608293 467.02068434725334 1439.9215954419735 461.5463905993347Q1445.156931923118 456.07209685141606 1448.1330360638515 449.33784660596064L1448.1330360638515 449.33784660596064Q1455.1714137397469 433.39287989575314 1455.1714137397469 408.99751529689354L1455.1714137397469 408.99751529689354Q1449.3929925613884 417.90410433120564 1441.4856793699503 423.0742706486843Q1433.5783661785124 428.22271357827447 1424.041798895432 428.22271357827447L1424.041798895432 428.22271357827447Q1412.7890839691547 428.22271357827447 1407.9447684700046 421.1843359023791Q1403.0787295829657 414.1459582264837 1403.0787295829657 402.5891158697666L1403.0787295829657 402.5891158697666Q1403.0787295829657 392.8787614835776 1405.3596853112651 383.1032369337229Q1407.6189176516762 373.32771238386823 1411.3770637563982 360.9671046752742L1411.3770637563982 360.9671046752742Q1412.1591057203862 358.4689150680891 1416.4603365223225 356.44863999445244Q1420.7615673242585 354.40664153292727 1424.3676497137603 354.40664153292727L1424.3676497137603 354.40664153292727Q1426.3879247873972 354.40664153292727 1427.4089240181597 355.18868349691564Q1428.4299232489223 355.970725460904 1427.952008715374 357.3827456736608L1427.952008715374 357.3827456736608L1427.0179030361655 361.1408917783827Q1425.3017553929687 367.5492912055097 1423.585607749772 374.3487116146308Q1421.8477367186867 381.148132023752 1420.9136310394786 387.10034030521905L1420.9136310394786 387.10034030521905Q1419.6753979298303 395.8548656243112 1419.6753979298303 400.39505369302145L1419.6753979298303 400.39505369302145Q1419.6753979298303 412.429810583287 1425.7579465386286 415.71004215446044L1425.7579465386286 415.71004215446044Q1427.7999450001537 416.8179349367773 1429.6681563585705 416.8179349367773L1429.6681563585705 416.8179349367773Q1436.0982791735862 416.8179349367773 1441.1815519395104 406.5644958533742Q1446.2648247054346 396.3327801578596 1449.0019715793944 383.49425791571707Q1451.7391184533535 370.67745906146314 1451.413267635025 365.20316531354456L1451.413267635025 365.20316531354456Q1451.261203919805 362.227061172811 1454.867286309307 360.0329989960658Q1458.4516453109204 357.8389368193207 1462.3618551308623 357.8389368193207L1462.3618551308623 357.8389368193207Q1467.532021448341 357.8389368193207 1467.988212594001 361.9229337423711L1467.988212594001 361.9229337423711L1467.988212594001 363.00910313679935L1468.4661271275493 364.4211233495562ZM1533.3756101385845 426.2024385046378Q1533.3756101385845 409.627493545662 1513.976624754095 400.06920287469296L1513.976624754095 400.06920287469296Q1509.1323092549449 404.15319979774335 1504.2879937557948 410.86572665531025L1504.2879937557948 410.86572665531025Q1498.3357854743276 419.4681882591824 1494.4255756543857 430.1126483245797L1494.4255756543857 430.1126483245797Q1492.861491726409 434.3269855749615 1491.4494715136523 441.6043205176311Q1490.059174688784 448.88165546030075 1490.059174688784 455.1379911722077L1490.059174688784 455.1379911722077Q1490.059174688784 461.5463905993347 1491.8404924956465 465.3697068677223Q1493.6435336903971 469.2147465239985 1497.7058072255593 469.2147465239985L1497.7058072255593 469.2147465239985Q1501.0077621846212 469.2147465239985 1505.374163150223 466.54276981370487L1505.374163150223 466.54276981370487Q1517.430643428377 459.5043921378095 1525.4031267834807 449.0337191755207Q1533.3756101385845 438.56304621323187 1533.3756101385845 426.2024385046378L1533.3756101385845 426.2024385046378ZM1537.7637344920747 397.89686408583634Q1543.3900919552136 403.1973707306464 1546.4313662596126 409.9316209761019Q1549.4943639519006 416.6658712215574 1549.4943639519006 424.1604400431126L1549.4943639519006 424.1604400431126Q1549.4943639519006 434.9569638237299 1543.2380282399936 446.05761503478715L1543.2380282399936 446.05761503478715Q1539.0019676017232 453.57390724423095 1530.8774205313996 461.8505180297746Q1522.7311500731873 470.14885220320684 1512.8035618081126 475.86210321789963Q1502.8759735430378 481.57535423259253 1493.7955974056174 481.57535423259253L1493.7955974056174 481.57535423259253Q1488.1692399424787 481.57535423259253 1483.1728607281086 479.05544123751883L1483.1728607281086 479.05544123751883Q1472.5284006627114 473.27702005916035 1472.5284006627114 458.2661590281612L1472.5284006627114 458.2661590281612Q1472.5284006627114 447.4696352475439 1477.3727161618615 434.5659428417357Q1482.2387550489 421.66225043592755 1487.7130487968188 412.7556614016155L1487.7130487968188 412.7556614016155Q1501.0077621846212 391.6405283739293 1515.692772397292 386.1662346260107L1515.692772397292 386.1662346260107Q1519.776769320342 384.602150698034 1524.4690211042723 384.602150698034L1524.4690211042723 384.602150698034Q1529.943314852191 384.602150698034 1533.6797375690244 387.33929757199326Q1537.4378836737462 390.0764444459526 1538.0678619225148 395.8548656243112L1538.0678619225148 395.8548656243112L1538.0678619225148 396.48484387307957Q1538.0678619225148 396.94103501873946 1537.7637344920747 397.89686408583634L1537.7637344920747 397.89686408583634ZM1618.3140567828775 393.35667601712606Q1619.400226177306 391.4667412708208 1623.701456979242 389.3595726456299Q1628.0026877811779 387.25240402043903 1631.2829193523514 387.25240402043903L1631.2829193523514 387.25240402043903Q1635.9751711362817 387.25240402043903 1635.3451928875131 391.6405283739293L1635.3451928875131 391.6405283739293Q1635.3451928875131 392.0967195195892 1635.1931291722933 393.0308251987976Q1635.0410654570735 393.98665426589446 1634.8890017418535 394.44284541155434L1634.8890017418535 394.44284541155434L1634.8890017418535 394.76869622988283Q1633.3249178138765 405.23936919217164 1631.3698129039058 419.8592092411766Q1629.4147079939346 434.4790492901815 1628.3068152116177 442.77738346361366L1628.3068152116177 442.77738346361366L1624.244541676456 472.7991055256119Q1623.7883505307962 475.9272733815653 1619.7912471593002 478.12133555831053Q1615.7941437878037 480.31539773505574 1611.731870252642 480.31539773505574L1611.731870252642 480.31539773505574Q1609.233680645457 480.31539773505574 1607.7564902690344 479.2292283406274Q1606.2575765047234 478.12133555831053 1606.5834273230519 476.1010604846739L1606.5834273230519 476.1010604846739Q1608.2995749662487 462.632559993763 1612.0577210709705 435.73900578771827L1612.0577210709705 435.73900578771827L1610.4936371429937 438.38925911012336Q1606.4096402199434 445.27557307079877 1604.3893651463068 448.4037409267523L1604.3893651463068 448.4037409267523Q1597.3509874704112 459.3523284225895 1589.4436742789733 466.86862063203336Q1581.5580844754238 474.36318945358863 1571.391538943575 476.88310244866227L1571.391538943575 476.88310244866227Q1567.481329123633 477.8172081278706 1564.3531612676795 477.8172081278706L1564.3531612676795 477.8172081278706Q1549.6464276671206 477.8172081278706 1549.6464276671206 457.78824449461274L1549.6464276671206 457.78824449461274Q1549.6464276671206 448.4037409267523 1552.6225318078539 436.4341542001524Q1555.5769125606992 424.48629086144115 1559.4219522169753 413.99389451126376Q1563.2452684853627 403.52322154897496 1566.0693089108763 398.0489278010563L1566.0693089108763 398.0489278010563Q1567.1554783053045 395.8548656243112 1571.0005179615807 394.20388814478014Q1574.8238342299685 392.5746340531377 1578.4299166194703 392.5746340531377L1578.4299166194703 392.5746340531377Q1580.6022554083272 392.5746340531377 1581.949105457418 393.35667601712606Q1583.2742321186208 394.13871798111444 1583.2742321186208 395.5507381938712L1583.2742321186208 395.5507381938712Q1583.2742321186208 396.1589930547511 1582.796317585072 397.4189495522879L1582.796317585072 397.4189495522879Q1572.3256446227833 420.4022939383907 1569.1974767668298 439.17130107411174L1569.1974767668298 439.17130107411174L1568.4154348028414 443.40736171238206Q1567.1554783053045 449.96782485472903 1567.1554783053045 453.421843529011L1567.1554783053045 453.421843529011Q1567.1554783053045 455.1379911722077 1567.3075420205246 455.9200331361961L1567.3075420205246 455.9200331361961Q1569.1974767668298 463.89251649129983 1573.4118140172116 463.41460195775136L1573.4118140172116 463.41460195775136Q1575.1279616604086 463.2625382425314 1577.5609811039278 460.4602212049064Q1579.994000547447 457.6361807793928 1580.6022554083272 457.00620253062436L1580.6022554083272 457.00620253062436Q1588.2706113329907 448.0996134963124 1594.5269470448977 437.5420469824693Q1600.7832827568047 426.9844804686262 1609.081616930237 411.0177903705302L1609.081616930237 411.0177903705302Q1613.2959541806188 402.41532876665804 1618.3140567828775 393.35667601712606L1618.3140567828775 393.35667601712606Z " fill="#000000" transform="matrix(0.5350308487431913,0,0,0.5350308487431913,0,73.93861441923693)"/></g></svg>