<svg width="500" height="130" xmlns="http://www.w3.org/2000/svg">

 <g>
  <title>background</title>
  <rect fill="none" id="canvas_background" height="132" width="502" y="-1" x="-1"/>
 </g>
 <g>
  <title>Layer 1</title>
  <g stroke="null" id="svg_2">
   <circle stroke="null" id="svg_3" transform="matrix(0.3359993953591337,0,0,0.3359993953591337,8.184000139835655,56.78554039781603) " fill="#209cee" cy="18.49515" cx="181.00002" r="166.66667"/>
   <path stroke="null" id="svg_4" fill="#ffffff" d="m54.31057,39.79989q0.36495,-0.57663 1.86126,-1.29193q1.5036,-0.70801 2.55467,-0.70801l0,0q1.36492,0 1.15325,1.31383l0,0q-0.57663,3.41595 -1.44521,7.33554q-0.86859,3.91229 -1.08026,4.96335l0,0q-1.78096,8.19683 -2.51817,12.34998l0,0l-0.37225,2.05103q-0.57663,3.0437 -0.91968,5.51808q-0.33576,2.46708 -0.33576,4.83197l0,0q0,5.62757 2.36489,8.56908l0,0q0.31386,0.41604 0.31386,0.83939l0,0q0,0.99997 -1.34302,1.81016q-1.33573,0.81749 -2.64955,0.81749l0,0q-1.10946,0 -1.5255,-0.57663l0,0q-2.78823,-3.46705 -2.78823,-9.83181l0,0q0,-2.51817 0.29196,-4.88306q0.28466,-2.36489 0.91968,-6.04361l0,0q0.83939,-5.3648 2.78094,-13.7733l0,0q-0.10219,0.10949 -0.10219,0.16058l0,0q-0.31386,0.52553 -1.36492,2.62766l0,0q-1.57659,3.20428 -2.94152,5.04364q-1.37222,1.83936 -3.47434,2.52547l0,0q-0.99267,0.31386 -1.89045,0.31386l0,0q-1.78827,0 -2.62766,-1.39412q-0.83939,-1.39412 -0.99997,-3.75901l0,0l-0.15328,-2.51817q-0.47444,1.46711 -0.99997,3.41595l0,0l-0.99997,3.41595q-1.83936,6.35747 -3.23348,10.53252q-1.38682,4.18235 -3.22618,8.17493l0,0q-0.32116,0.7372 -1.65688,1.31383q-1.34302,0.57663 -2.54737,0.57663l0,0q-0.68611,0 -1.10945,-0.23357q-0.41605,-0.24087 -0.41605,-0.70801l0,0q0,-0.26276 0.15328,-0.58392l0,0q1.89775,-4.20425 3.31377,-8.53988q1.41602,-4.33563 3.46705,-11.43031l0,0l0.94888,-3.25537q2.10213,-7.14577 3.25537,-10.7223l0,0l0.31386,-1.10216q0.52553,-1.73717 0.99997,-2.83933q0.47444,-1.10216 1.21164,-1.99264l0,0q0.41604,-0.52553 1.54739,-1.05106q1.13135,-0.52553 2.13132,-0.52553l0,0q1.5255,0 1.57659,1.36492l0,0q0.10219,2.36489 0.52553,7.09467l0,0l0.21167,2.46708q0.05109,0.47444 0.05109,1.89045l0,0q0,2.73714 0.15328,4.05097l0,0l1.37222,-2.36489q0.62772,-1.16055 2.67875,-4.67869l0,0q2.72984,-4.5692 6.56914,-10.56172l0,0zm36.04998,-0.68611q1.62769,0 1.62769,0.89778l0,0q0,0.7883 -1.20434,1.67878q-1.21164,0.89049 -2.3138,0.94888l0,0q-6.99249,0.15328 -12.87552,1.78097l0,0q-2.10213,6.78081 -3.8393,14.45211l0,0q4.46701,-0.89048 8.78075,-0.89048l0,0q1.83936,0 3.72981,0.16058l0,0q1.10216,0.05109 1.10216,0.7299l0,0q0,0.78829 -1.31383,1.81746q-1.31383,1.02187 -2.2627,0.97077l0,0q-0.7883,-0.05109 -2.36489,-0.05109l0,0q-3.94148,0 -8.51069,0.94158l0,0q-2.10213,9.30628 -3.41595,18.3425l0,0q-0.16058,0.99997 -1.57659,1.75907q-1.41602,0.7664 -2.78823,0.7664l0,0q-0.7883,0 -1.23354,-0.31386q-0.44524,-0.32116 -0.34305,-0.94888l0,0q1.63498,-10.29895 3.31376,-17.97025l0,0l-1.78827,0.62772q-0.94157,0.31386 -1.57659,0.31386l0,0q-0.62772,0 -0.99997,-0.26276q-0.36495,-0.26276 -0.36495,-0.7372l0,0q0,-0.52553 0.52553,-1.10216q0.52553,-0.57663 1.5255,-1.05106l0,0q1.83936,-0.83939 3.51814,-1.41602l0,0q1.78827,-7.78078 3.89039,-14.13825l0,0q-0.7372,0.21167 -1.05106,0.21167l0,0q-0.7372,0 -1.26274,-0.37225q-0.52553,-0.36495 -0.52553,-0.89048l0,0q0,-0.94888 1.47441,-1.62769l0,0q9.934,-4.78087 22.1234,-4.6276l0,0zm22.59784,4.36483l0.16058,1.20434q0.52553,4.67869 0.78829,7.48882q0.26277,2.81743 0.26277,5.86113l0,0q0,12.2478 -5.46699,18.50308l0,0q-3.051,3.46705 -6.96329,5.40859q-3.91959,1.94884 -7.91217,1.94884l0,0q-3.36486,0 -6.43776,-1.47441q-3.0729,-1.47441 -5.59836,-4.41592l0,0q-0.31386,-0.41605 -0.31386,-0.7883l0,0q0,-0.94157 1.34302,-1.75907q1.33573,-0.81749 2.64955,-0.81749l0,0q0.94888,0 1.42331,0.52553l0,0q4.09477,4.94145 8.51069,4.94145l0,0q2.05103,0 3.99258,-1.05106l0,0q2.21161,-1.10216 3.97068,-2.94152q1.75907,-1.83936 2.75904,-4.10206l0,0q2.36489,-5.3575 2.36489,-13.55433l0,0q-1.94155,2.99261 -4.5984,4.72978q-2.65685,1.72987 -5.86113,1.72987l0,0q-3.7809,0 -5.40859,-2.36489q-1.63498,-2.36489 -1.63498,-6.24798l0,0q0,-3.26268 0.7664,-6.54724q0.7591,-3.28457 2.02184,-7.43773l0,0q0.26276,-0.83939 1.70798,-1.5182q1.44521,-0.68611 2.65685,-0.68611l0,0q0.67881,0 1.02186,0.26276q0.34306,0.26277 0.18247,0.73721l0,0l-0.31386,1.26273q-0.57663,2.15322 -1.15325,4.43782q-0.58392,2.2846 -0.89778,4.28454l0,0q-0.41605,2.94152 -0.41605,4.46701l0,0q0,4.04367 2.04373,5.14583l0,0q0.68611,0.37225 1.31383,0.37225l0,0q2.16052,0 3.8685,-3.44515q1.70798,-3.43785 2.62766,-7.75159q0.91968,-4.30644 0.81019,-6.1458l0,0q-0.05109,-0.99997 1.16055,-1.73717q1.20434,-0.7372 2.51817,-0.7372l0,0q1.73717,0 1.89045,1.37222l0,0l0,0.36495l0.16058,0.47444z"/>
   <path stroke="null" id="svg_5" fill="#000000" d="m183.48057,39.79989q0.36495,-0.57663 1.86126,-1.29193q1.5036,-0.70801 2.55467,-0.70801l0,0q1.36492,0 1.15325,1.31383l0,0q-0.57663,3.41595 -1.44521,7.33554q-0.86859,3.91229 -1.08026,4.96335l0,0q-1.78097,8.19683 -2.51817,12.34998l0,0l-0.37225,2.05103q-0.57663,3.0437 -0.91968,5.51808q-0.33575,2.46708 -0.33575,4.83197l0,0q0,5.62757 2.36489,8.56908l0,0q0.31386,0.41604 0.31386,0.83939l0,0q0,0.99997 -1.34302,1.81016q-1.33573,0.81749 -2.64955,0.81749l0,0q-1.10946,0 -1.5255,-0.57663l0,0q-2.78824,-3.46705 -2.78824,-9.83181l0,0q0,-2.51817 0.29196,-4.88306q0.28466,-2.36489 0.91968,-6.04361l0,0q0.83939,-5.3648 2.78094,-13.7733l0,0q-0.10219,0.10949 -0.10219,0.16058l0,0q-0.31386,0.52553 -1.36492,2.62766l0,0q-1.5766,3.20428 -2.94152,5.04364q-1.37222,1.83936 -3.47434,2.52547l0,0q-0.99267,0.31386 -1.89045,0.31386l0,0q-1.78827,0 -2.62766,-1.39412q-0.83939,-1.39412 -0.99997,-3.75901l0,0l-0.15328,-2.51817q-0.47444,1.46711 -0.99997,3.41595l0,0l-0.99997,3.41595q-1.83936,6.35747 -3.23348,10.53252q-1.38682,4.18235 -3.22618,8.17493l0,0q-0.32116,0.7372 -1.65688,1.31383q-1.34302,0.57663 -2.54737,0.57663l0,0q-0.68611,0 -1.10946,-0.23357q-0.41604,-0.24087 -0.41604,-0.70801l0,0q0,-0.26276 0.15328,-0.58392l0,0q1.89775,-4.20425 3.31377,-8.53988q1.41602,-4.33563 3.46705,-11.43031l0,0l0.94888,-3.25537q2.10212,-7.14577 3.25537,-10.7223l0,0l0.31386,-1.10216q0.52553,-1.73717 0.99997,-2.83933q0.47444,-1.10216 1.21164,-1.99264l0,0q0.41604,-0.52553 1.5474,-1.05106q1.13135,-0.52553 2.13132,-0.52553l0,0q1.5255,0 1.57659,1.36492l0,0q0.10219,2.36489 0.52553,7.09467l0,0l0.21167,2.46708q0.0511,0.47444 0.0511,1.89045l0,0q0,2.73714 0.15328,4.05097l0,0l1.37222,-2.36489q0.62772,-1.16055 2.67875,-4.67869l0,0q2.72984,-4.5692 6.56914,-10.56172l0,0zm25.48827,24.4372q0,-5.56917 -6.51805,-8.78075l0,0q-1.62769,1.37222 -3.25537,3.62763l0,0q-1.99994,2.89042 -3.31377,6.46695l0,0q-0.52553,1.41602 -0.99997,3.86119q-0.47444,2.44518 -0.47444,4.5473l0,0q0,2.15322 0.60582,3.43785q0.60582,1.29193 1.97074,1.29193l0,0q1.10216,0 2.57656,-0.89778l0,0q4.04367,-2.36489 6.72972,-5.88303q2.67875,-3.51814 2.67875,-7.6713l0,0zm1.46711,-9.51066q1.89775,1.78097 2.91962,4.04367q1.02187,2.2627 1.02187,4.78087l0,0q0,3.62762 -2.10213,7.35744l0,0q-1.41602,2.52547 -4.14586,5.3064q-2.73714,2.78823 -6.07281,4.70788q-3.33566,1.91965 -6.38667,1.91965l0,0q-1.89045,0 -3.56923,-0.84669l0,0q-3.57653,-1.94155 -3.57653,-6.98519l0,0q0,-3.62762 1.62769,-7.96326q1.62769,-4.33563 3.46705,-7.32824l0,0q4.46702,-7.09467 9.40847,-8.93403l0,0q1.36492,-0.52553 2.94151,-0.52553l0,0q1.83936,0 3.10209,0.91968q1.26274,0.91968 1.47441,2.86123l0,0l0,0.21167q0,0.15328 -0.10949,0.47444l0,0zm23.38614,-4.10206q0.37225,-0.52553 1.5036,-0.91968q1.12405,-0.39415 2.12402,-0.39415l0,0q0.7372,0 1.18245,0.21167q0.44524,0.21167 0.44524,0.67881l0,0q0,0.37225 -0.26276,0.7883l0,0q-4.30644,7.20416 -7.22605,14.26963q-2.91232,7.07278 -4.48891,14.63459l0,0q-0.21167,0.99997 -1.4963,1.81746q-1.29193,0.8102 -2.55467,0.8102l0,0q-1.41601,0 -1.78096,-1.10216l0,0q-1.99994,-5.88303 -2.81743,-12.00693q-0.8102,-6.1239 -1.49631,-15.84623l0,0l-0.05109,-1.10216q-0.05109,-1.15325 1.39412,-2.05103q1.44521,-0.89048 2.86123,-0.89048l0,0q1.36492,0 1.42331,0.94158l0,0q0.10218,1.26273 0.10218,1.99994l0,0l0,0.16058q0.57663,10.03619 1.67878,16.29147l0,0q3.62763,-10.40844 9.45956,-18.29141l0,0zm12.51056,-8.93403q-0.57663,-0.16058 -1.15325,-0.16058l0,0q-1.16055,0 -2.05103,0.58392l0,0q-1.16055,0.62772 -1.31383,1.25543l0,0q-0.68611,2.47438 -0.89778,3.26268l0,0l0,0.15328q0,0.26276 0.21167,0.50363q0.21167,0.23357 0.47444,0.34306l0,0q0.42335,0.20437 0.94888,0.20437l0,0q0.83939,0 2.02183,-0.49633q1.18245,-0.49633 1.5474,-1.39412l0,0q0.31386,-0.89048 0.89778,-3.15319l0,0l0,-0.10218q0,-0.26276 -0.21167,-0.55473q-0.21167,-0.28466 -0.47444,-0.44524l0,0zm-0.31386,9.72233l-1.73717,11.35001q-0.31386,2.10213 -1.18245,7.59831q-0.86859,5.48888 -1.44521,9.9559l0,0q-0.15328,0.99997 -1.39412,1.70798q-1.23354,0.70801 -2.49627,0.70801l0,0q-0.83939,0 -1.28463,-0.34306q-0.44524,-0.33575 -0.34306,-1.02186l0,0q0.89778,-5.25531 1.91965,-12.00693q1.02186,-6.75162 1.44521,-9.64204l0,0l1.10216,-7.20416q0.16058,-0.94158 1.44521,-1.62769q1.29193,-0.68611 2.49627,-0.68611l0,0q0.7372,0 1.16055,0.32116q0.41604,0.31386 0.31386,0.89049l0,0zm16.29147,2.89042q-2.67875,2.05103 -4.36483,6.62023l0,0q5.15313,-1.94155 9.30628,-3.25537l0,0q-1.73717,-2.41598 -3.52544,-3.26267l0,0q-0.36495,-0.15328 -0.70801,-0.20437q-0.34305,-0.05839 -0.39415,-0.05839l0,0q0.0511,0.05839 -0.08029,0.10949q-0.13138,0.0511 -0.23357,0.0511l0,0zm0.21167,-3.72981q0.83939,-0.21167 1.78097,-0.21167l0,0q5.05094,0 9.14571,6.78081l0,0q0.16058,0.21167 0.16058,0.52553l0,0q0,0.57663 -0.7372,1.20434l0,0q-0.57663,0.63502 -1.47441,0.99997l0,0q-5.25531,2.3138 -14.60539,5.51808l0,0q-0.52553,2.67875 -0.52553,5.51808l0,0q0,1.31382 0.05109,1.89045l0,0q0.10219,2.36489 0.94888,4.10207l0,0q0.26276,0.57662 0.7591,1.10216q0.49633,0.52553 0.7591,0.68611l0,0q0.16058,0.10218 0.52553,0.10218l0,0q0.37225,0 0.86859,-0.21167q0.50363,-0.20437 1.13135,-0.57663l0,0q1.5255,-0.89049 2.83933,-2.05103q1.31383,-1.15325 3.15319,-2.99261l0,0q0.73721,-0.73721 2.46708,-0.73721l0,0q0.94888,0 1.60579,0.29196q0.65692,0.28466 0.65692,0.8102l0,0q0,0.47444 -0.52553,1.05106l0,0q-3.26267,3.52544 -6.67863,5.99252q-3.41595,2.47437 -6.83191,2.47437l0,0q-1.62769,0 -3.0437,-0.68611l0,0q-2.36489,-1.10216 -3.41595,-3.51814q-1.05106,-2.42328 -1.05106,-5.67866l0,0q0,-2.41598 0.62772,-5.67866l0,0l-0.41604,0.10949l-0.42335,0.15328q-0.7883,0.26277 -1.26274,0.26277l0,0q-0.7372,0 -1.15325,-0.36495q-0.42335,-0.36495 -0.42335,-0.94888l0,0q0,-0.67881 0.55473,-1.33573q0.54743,-0.65692 1.65688,-1.08026l0,0l2.56926,-0.99997q0.47444,-1.46711 1.42331,-3.832l0,0q1.46711,-3.26267 3.67872,-5.62756q2.20431,-2.36489 5.20422,-3.0437l0,0zm19.64903,7.14576q0,1.99994 1.02917,3.51814q1.02187,1.5255 2.49627,2.57656q1.46711,1.05106 3.99258,2.47438l0,0q3.41595,1.94155 5.22612,3.51814q1.81746,1.5766 2.39409,3.94148l0,0q0.21167,1.05106 0.21167,1.5255l0,0q0,3.67872 -3.89039,5.27721q-3.89039,1.60579 -8.83184,1.60579l0,0q-1.94155,0 -3.41595,-0.26277l0,0q-1.72987,-0.31386 -3.59843,-1.23354q-1.86126,-0.91968 -3.10209,-2.2627q-1.23354,-1.33573 -1.23354,-2.75904l0,0q0,-2.20431 3.41595,-4.04367l0,0q0.94888,-0.47444 1.83936,-0.47444l0,0q0.83939,0 1.39412,0.36495q0.55473,0.37225 0.55473,0.89778l0,0q0,0.94158 -1.5255,1.83936l0,0q-0.31386,0.15328 -0.31386,0.47444l0,0q0,0.62772 0.99267,1.5182q0.99997,0.89778 1.57659,1.21164l0,0q1.57659,0.89048 5.05094,1.10216l0,0q0.41605,0.0511 1.46711,0.0511l0,0q1.89045,0 3.051,-0.62772q1.15325,-0.62772 0.99997,-2.3138l0,0q-0.21167,-2.25541 -4.5765,-5.09473l0,0l-1.99264,-1.26274q-2.73715,-1.67878 -4.49621,-2.97071q-1.75907,-1.28463 -3.0218,-3.10209q-1.26274,-1.81016 -1.26274,-4.07287l0,0q0,-1.41602 0.52553,-2.83203l0,0q1.16055,-3.41595 4.31374,-5.28451q3.15319,-1.86855 6.77351,-1.86855l0,0q3.73711,0 6.28448,1.89775q2.54737,1.89045 2.54737,5.3575l0,0q0,1.10216 -0.31386,2.36489l0,0q-0.21167,0.94888 -1.57659,1.62769q-1.36492,0.68611 -2.57656,0.68611l0,0q-0.73721,0 -1.13135,-0.31386q-0.39415,-0.32116 -0.18247,-0.89778l0,0q0.31386,-1.10216 0.31386,-2.20431l0,0q0,-1.73717 -0.89048,-2.94152q-0.89778,-1.21164 -2.62766,-1.68608l0,0q-0.94888,-0.21167 -1.42331,-0.21167l0,0q-1.89045,0 -3.17509,1.34303q-1.29193,1.34302 -1.29193,3.54733l0,0zm62.12218,-18.60526q1.62769,0 1.62769,0.89778l0,0q0,0.7883 -1.21164,1.67878q-1.20434,0.89049 -2.3065,0.94888l0,0q-6.99248,0.15328 -12.87551,1.78097l0,0q-2.10213,6.78081 -3.8393,14.45211l0,0q4.46702,-0.89048 8.77345,-0.89048l0,0q1.83936,0 3.73711,0.16058l0,0q1.10216,0.05109 1.10216,0.7299l0,0q0,0.78829 -1.31383,1.81746q-1.31383,1.02187 -2.2627,0.97077l0,0q-0.78829,-0.05109 -2.36489,-0.05109l0,0q-3.94148,0 -8.51069,0.94158l0,0q-2.10212,9.30628 -3.41595,18.3425l0,0q-0.16058,0.99997 -1.57659,1.75907q-1.42331,0.7664 -2.78824,0.7664l0,0q-0.78829,0 -1.23354,-0.31386q-0.44524,-0.32116 -0.34306,-0.94888l0,0q1.62769,-10.29895 3.31377,-17.97025l0,0l-1.78827,0.62772q-0.94888,0.31386 -1.57659,0.31386l0,0q-0.62772,0 -0.99997,-0.26276q-0.36495,-0.26276 -0.36495,-0.7372l0,0q0,-0.52553 0.52553,-1.10216q0.52553,-0.57663 1.5255,-1.05106l0,0q1.83936,-0.83939 3.51814,-1.41602l0,0q1.78827,-7.78078 3.89039,-14.13825l0,0q-0.7372,0.21167 -1.05106,0.21167l0,0q-0.73721,0 -1.26274,-0.37225q-0.52553,-0.36495 -0.52553,-0.89048l0,0q0,-0.94888 1.47441,-1.62769l0,0q9.9267,-4.78087 22.12341,-4.6276l0,0zm14.81706,25.12331q0,-5.56917 -6.51805,-8.78075l0,0q-1.62769,1.37222 -3.25537,3.62763l0,0q-1.99994,2.89042 -3.31377,6.46695l0,0q-0.52553,1.41602 -0.99267,3.86119q-0.47444,2.44518 -0.47444,4.5473l0,0q0,2.15322 0.60582,3.43785q0.59852,1.29193 1.97074,1.29193l0,0q1.10216,0 2.56926,-0.89778l0,0q4.05097,-2.36489 6.72972,-5.88303q2.67875,-3.51814 2.67875,-7.6713l0,0zm1.47441,-9.51066q1.89045,1.78097 2.91232,4.04367q1.02917,2.2627 1.02917,4.78087l0,0q0,3.62762 -2.10213,7.35744l0,0q-1.42331,2.52547 -4.15315,5.3064q-2.72984,2.78823 -6.07281,4.70788q-3.33566,1.91965 -6.37937,1.91965l0,0q-1.89775,0 -3.57653,-0.84669l0,0q-3.57653,-1.94155 -3.57653,-6.98519l0,0q0,-3.62762 1.63499,-7.96326q1.62769,-4.33563 3.46704,-7.32824l0,0q4.46702,-7.09467 9.40847,-8.93403l0,0q1.36492,-0.52553 2.94152,-0.52553l0,0q1.83936,0 3.10209,0.91968q1.25543,0.91968 1.46711,2.86123l0,0l0,0.21167q0,0.15328 -0.10219,0.47444l0,0zm19.44466,-4.89036q1.5255,-0.62772 2.78094,-0.62772l0,0q1.37222,0 2.21161,0.70801q0.83939,0.70801 0.83939,2.2846l0,0q0,1.5255 -0.47444,3.31377q-0.47444,1.78097 -1.31383,4.20425l0,0l-0.7372,2.20431q-0.31386,0.99997 -1.62769,1.67878q-1.31383,0.68611 -2.51817,0.68611l0,0q-0.7883,0 -1.18245,-0.34306q-0.39415,-0.34306 -0.18978,-1.02186l0,0q0.94888,-2.94152 1.89775,-6.51805l0,0q0.20437,-1.62769 0.31386,-2.15322l0,0l-0.21167,0.21167q-4.04367,3.46705 -7.40853,8.72236l0,0q-1.5255,8.35741 -1.89045,16.76591l0,0q-0.05839,0.99267 -1.34302,1.75907q-1.28463,0.7591 -2.65685,0.7591l0,0q-0.78829,0 -1.31382,-0.36495q-0.52553,-0.37225 -0.46714,-1.10216l0,0q0.41604,-7.56911 1.62769,-14.71488l0,0q-0.52553,-0.37225 -0.52553,-0.84669l0,0q0,-0.31386 0.21167,-0.67881l0,0l0.78829,-1.31383q1.15325,-6.04361 2.83203,-12.13831l0,0q0.26276,-0.94888 1.65688,-1.65688q1.39412,-0.70801 2.65685,-0.70801l0,0q0.7883,0 1.20434,0.31386q0.42335,0.31386 0.21167,0.94157l0,0q-0.83939,2.94881 -1.05106,3.89039l0,0q3.15319,-3.15319 5.67866,-4.25534l0,0zm47.87444,-6.35747l0.16058,1.20434q0.52553,4.67869 0.7883,7.48882q0.26276,2.81743 0.26276,5.86113l0,0q0,12.2478 -5.46699,18.50308l0,0q-3.051,3.46705 -6.96329,5.40859q-3.91959,1.94884 -7.91216,1.94884l0,0q-3.36486,0 -6.43776,-1.47441q-3.0729,-1.47441 -5.59837,-4.41592l0,0q-0.31386,-0.41605 -0.31386,-0.7883l0,0q0,-0.94157 1.34302,-1.75907q1.33573,-0.81749 2.64955,-0.81749l0,0q0.94888,0 1.42331,0.52553l0,0q4.09476,4.94145 8.51069,4.94145l0,0q2.05103,0 3.99258,-1.05106l0,0q2.21161,-1.10216 3.97068,-2.94152q1.75907,-1.83936 2.75904,-4.10206l0,0q2.36489,-5.3575 2.36489,-13.55433l0,0q-1.94155,2.99261 -4.5984,4.72978q-2.65685,1.72987 -5.86113,1.72987l0,0q-3.78091,0 -5.40859,-2.36489q-1.63499,-2.36489 -1.63499,-6.24798l0,0q0,-3.26268 0.7664,-6.54724q0.7591,-3.28457 2.02183,-7.43773l0,0q0.26277,-0.83939 1.70798,-1.5182q1.44521,-0.68611 2.65685,-0.68611l0,0q0.67881,0 1.02186,0.26276q0.34306,0.26277 0.18248,0.73721l0,0l-0.31386,1.26273q-0.57662,2.15322 -1.15325,4.43782q-0.58392,2.2846 -0.89778,4.28454l0,0q-0.41604,2.94152 -0.41604,4.46701l0,0q0,4.04367 2.04373,5.14583l0,0q0.68611,0.37225 1.31383,0.37225l0,0q2.16052,0 3.86849,-3.44515q1.70798,-3.43785 2.62766,-7.75159q0.91968,-4.30644 0.8102,-6.1458l0,0q-0.0511,-0.99997 1.16055,-1.73717q1.20434,-0.7372 2.51817,-0.7372l0,0q1.73717,0 1.89045,1.37222l0,0l0,0.36495l0.16058,0.47444zm21.80955,20.75849q0,-5.56917 -6.51805,-8.78075l0,0q-1.62769,1.37222 -3.25537,3.62763l0,0q-1.99994,2.89042 -3.31376,6.46695l0,0q-0.52553,1.41602 -0.99997,3.86119q-0.46714,2.44518 -0.46714,4.5473l0,0q0,2.15322 0.59852,3.43785q0.60582,1.29193 1.97074,1.29193l0,0q1.10945,0 2.57656,-0.89778l0,0q4.05097,-2.36489 6.72972,-5.88303q2.67875,-3.51814 2.67875,-7.6713l0,0zm1.47441,-9.51066q1.89045,1.78097 2.91232,4.04367q1.02916,2.2627 1.02916,4.78087l0,0q0,3.62762 -2.10212,7.35744l0,0q-1.42331,2.52547 -4.15316,5.3064q-2.73714,2.78823 -6.07281,4.70788q-3.33566,1.91965 -6.38666,1.91965l0,0q-1.89045,0 -3.56923,-0.84669l0,0q-3.57653,-1.94155 -3.57653,-6.98519l0,0q0,-3.62762 1.62769,-7.96326q1.63499,-4.33563 3.47434,-7.32824l0,0q4.46701,-7.09467 9.40117,-8.93403l0,0q1.37222,-0.52553 2.94881,-0.52553l0,0q1.83936,0 3.0948,0.91968q1.26273,0.91968 1.47441,2.86123l0,0l0,0.21167q0,0.15328 -0.10219,0.47444l0,0zm27.06486,-1.5255q0.36495,-0.63502 1.81016,-1.34303q1.44521,-0.70801 2.54737,-0.70801l0,0q1.57659,0 1.36492,1.47441l0,0q0,0.15328 -0.05109,0.46714q-0.05109,0.32115 -0.10219,0.47444l0,0l0,0.10949q-0.52553,3.51814 -1.18245,8.4304q-0.65691,4.91226 -1.02916,7.70049l0,0l-1.36492,10.08728q-0.15328,1.05106 -1.4963,1.78827q-1.34303,0.7372 -2.70795,0.7372l0,0q-0.83939,0 -1.33573,-0.36495q-0.50363,-0.37225 -0.39415,-1.05106l0,0q0.57662,-4.52541 1.83936,-13.56162l0,0l-0.52553,0.89048q-1.37222,2.3138 -2.05103,3.36486l0,0q-2.36489,3.67872 -5.02175,6.20419q-2.64955,2.51817 -6.0655,3.36486l0,0q-1.31383,0.31386 -2.36489,0.31386l0,0q-4.94145,0 -4.94145,-6.72972l0,0q0,-3.15319 0.99997,-7.17496q0.99267,-4.01447 2.2846,-7.53991q1.28463,-3.51814 2.23351,-5.3575l0,0q0.36495,-0.7372 1.65688,-1.29193q1.28463,-0.54743 2.49627,-0.54743l0,0q0.7299,0 1.18245,0.26277q0.44524,0.26276 0.44524,0.7372l0,0q0,0.20437 -0.16058,0.62772l0,0q-3.51814,7.72239 -4.5692,14.02876l0,0l-0.26277,1.42331q-0.42334,2.20431 -0.42334,3.36486l0,0q0,0.57663 0.05109,0.83939l0,0q0.63502,2.67875 2.05103,2.51817l0,0q0.57663,-0.05109 1.39412,-0.99267q0.81749,-0.94888 1.02187,-1.16055l0,0q2.57656,-2.99261 4.67869,-6.53994q2.10212,-3.54734 4.89036,-8.91214l0,0q1.41601,-2.89042 3.10209,-5.93412l0,0z"/>
  </g>
 </g>
</svg>